<svg width="128" height="128" viewBox="0 0 128 128" fill="none" xmlns="http://www.w3.org/2000/svg">
<path d="M64 0C28.6613 0 0 28.656 0 64C0 92.2773 18.336 116.267 43.7707 124.731C46.9653 125.323 48 123.339 48 121.653V109.739C30.1973 113.611 26.4907 102.187 26.4907 102.187C23.5787 94.7893 19.3813 92.8213 19.3813 92.8213C13.5733 88.848 19.824 88.9333 19.824 88.9333C26.2507 89.3813 29.632 95.5307 29.632 95.5307C35.3387 105.312 44.6027 102.485 48.256 100.848C48.8267 96.7147 50.4853 93.888 52.32 92.2933C38.1067 90.6667 23.1627 85.1787 23.1627 60.6613C23.1627 53.6693 25.664 47.9627 29.7547 43.4827C29.0933 41.8667 26.9013 35.3547 30.3787 26.544C30.3787 26.544 35.7547 24.8267 47.984 33.104C53.088 31.6853 58.56 30.976 64 30.9493C69.44 30.976 74.9173 31.6853 80.032 33.104C92.2507 24.8267 97.616 26.544 97.616 26.544C101.099 35.36 98.9067 41.872 98.2453 43.4827C102.352 47.9627 104.832 53.6747 104.832 60.6613C104.832 85.2427 89.8613 90.656 75.6107 92.24C77.904 94.224 80 98.1173 80 104.091V121.653C80 123.355 81.024 125.355 84.272 124.725C109.685 116.251 128 92.2667 128 64C128 28.656 99.344 0 64 0Z" fill="white"/>
</svg>
