<svg width="128" height="128" viewBox="0 0 128 128" fill="none" xmlns="http://www.w3.org/2000/svg">
<g clip-path="url(#clip0_368_4)">
<path fill-rule="evenodd" clip-rule="evenodd" d="M101.856 56.736C81.2267 44.4853 47.2 43.36 27.504 49.3387C24.3413 50.2987 20.9973 48.512 20.0427 45.3493C19.0827 42.1867 20.864 38.8427 24.032 37.8827C46.64 31.0187 84.2187 32.3467 107.968 46.4427C110.811 48.1333 111.744 51.8027 110.059 54.6453C108.373 57.488 104.699 58.4267 101.856 56.736ZM101.184 74.8853C99.7333 77.232 96.6667 77.968 94.32 76.528C77.12 65.9573 50.896 62.8907 30.544 69.0667C27.9093 69.8667 25.12 68.3787 24.32 65.744C23.5253 63.104 25.0133 60.3253 27.648 59.52C50.8907 52.4693 79.7867 55.8827 99.5413 68.0267C101.888 69.4667 102.624 72.544 101.184 74.8853ZM93.3493 92.3093C92.2027 94.1973 89.744 94.7893 87.8667 93.6373C72.8373 84.4533 53.92 82.3787 31.6427 87.4667C29.4987 87.9573 27.36 86.6133 26.8693 84.4693C26.3787 82.32 27.7173 80.1813 29.8667 79.6907C54.2453 74.1173 75.1573 76.5173 92.0267 86.8267C93.9093 87.9733 94.5013 90.432 93.3493 92.3093ZM64 0C28.656 0 0 28.656 0 64C0 99.3493 28.656 128 64 128C99.3493 128 128 99.3493 128 64C128 28.656 99.3493 0 64 0Z" fill="white"/>
</g>
<defs>
<clipPath id="clip0_368_4">
<rect width="128" height="128" fill="white"/>
</clipPath>
</defs>
</svg>
